<?xml version="1.0" encoding="utf-8"?>
<!-- Generator: Adobe Illustrator 16.0.0, SVG Export Plug-In . SVG Version: 6.00 Build 0)  -->
<!DOCTYPE svg PUBLIC "-//W3C//DTD SVG 1.1//EN" "http://www.w3.org/Graphics/SVG/1.1/DTD/svg11.dtd">
<svg version="1.1" id="Layer_1" xmlns="http://www.w3.org/2000/svg" xmlns:xlink="http://www.w3.org/1999/xlink" x="0px" y="0px"
	 width="50px" height="50px" viewBox="0 0 50 50" enable-background="new 0 0 50 50" xml:space="preserve">
<path fill="#DDEBBD" d="M18.738,27.794l-4.153-10.987l-4.153,10.987H18.738L18.738,27.794z M43.099,11.786
	c-4.154-5.433-10.684-8.953-18.05-8.953c-12.555,0-22.734,10.179-22.734,22.734c0,4.556,1.355,8.791,3.663,12.349l9.854-26.13h0.906
	l6.056,16.527l-0.023,9.184l-3.805-9.174h-8.76L6.362,38.498c0.076,0.109,0.162,0.213,0.24,0.32h3.83v0.529H6.999
	c4.154,5.434,10.683,8.952,18.05,8.952s13.896-3.519,18.05-8.952h-6.116l1.787-0.542h0.756L27.912,25.18h-0.31v13.626h3.988v0.542
	H19.435v-0.542h4.297V12.328h-4.297v-0.542h12.156v0.542h-3.988v12.31h0.388l11.69-12.31H39.52l-2.778-0.542H43.099L43.099,11.786z
	 M30.622,22.741l13.405,15.326c2.367-3.588,3.754-7.88,3.754-12.5c0-4.945-1.596-9.508-4.277-13.239h-3.05L30.622,22.741
	L30.622,22.741z"/>
</svg>
